<svg width="28" height="28" viewBox="0 0 28 28" fill="none" xmlns="http://www.w3.org/2000/svg">
<rect width="28" height="28" rx="14" fill="#2E2E2E"/>
<path d="M9.51159 21.888C8.69559 21.888 8.10359 21.664 7.73559 21.216C7.36759 20.768 7.18359 20.2 7.18359 19.512C7.18359 18.936 7.28759 18.336 7.49559 17.712C7.71959 17.072 8.02359 16.464 8.40759 15.888C8.80759 15.296 9.27159 14.784 9.79959 14.352C10.3276 13.92 10.9116 13.624 11.5516 13.464C11.7756 13.416 11.9676 13.392 12.1276 13.392C12.3516 13.392 12.5276 13.424 12.6556 13.488C12.7836 13.536 12.8476 13.6 12.8476 13.68C12.8476 13.76 12.7836 13.824 12.6556 13.872C11.9836 14.176 11.3116 14.784 10.6396 15.696C9.96759 16.608 9.44759 17.72 9.07959 19.032C8.98359 19.368 8.93559 19.68 8.93559 19.968C8.93559 20.304 8.99959 20.576 9.12759 20.784C9.25559 20.976 9.43159 21.072 9.65559 21.072C9.92759 21.072 10.2396 20.912 10.5916 20.592C10.9596 20.256 11.3516 19.704 11.7676 18.936C12.1356 18.264 12.5036 17.488 12.8716 16.608C13.2556 15.728 13.6156 14.808 13.9516 13.848C14.3036 12.872 14.6156 11.928 14.8876 11.016C15.1596 10.104 15.3676 9.288 15.5116 8.568L15.3436 8.592C14.9436 8.656 14.5516 8.712 14.1676 8.76C13.7996 8.792 13.4556 8.84 13.1356 8.904C12.8156 8.968 12.5356 9.032 12.2956 9.096C12.0556 9.144 11.8716 9.184 11.7436 9.216C11.6476 9.248 11.5996 9.136 11.5996 8.88C11.5996 8.72 11.6396 8.504 11.7196 8.232C11.8476 7.832 11.9836 7.568 12.1276 7.44C12.2716 7.312 12.5436 7.208 12.9436 7.128C13.0876 7.096 13.3596 7.056 13.7596 7.008C14.1596 6.96 14.6236 6.92 15.1516 6.888C15.6956 6.856 16.2556 6.84 16.8316 6.84C17.4716 6.84 18.0796 6.872 18.6556 6.936C19.2476 7 19.7276 7.12 20.0956 7.296C20.4636 7.456 20.6476 7.688 20.6476 7.992C20.6476 8.088 20.6396 8.192 20.6236 8.304C20.6076 8.416 20.6076 8.512 20.6236 8.592C20.6236 8.656 20.6076 8.696 20.5756 8.712C20.5436 8.712 20.5116 8.696 20.4796 8.664C20.4316 8.568 20.2476 8.504 19.9276 8.472C19.6076 8.424 19.2156 8.4 18.7516 8.4C18.6236 8.88 18.4636 9.44 18.2716 10.08C18.0796 10.704 17.8636 11.36 17.6236 12.048C17.3996 12.72 17.1756 13.368 16.9516 13.992C16.7276 14.6 16.5196 15.136 16.3276 15.6C16.0236 16.336 15.6716 17.08 15.2716 17.832C14.8716 18.568 14.4076 19.248 13.8796 19.872C13.3516 20.48 12.7276 20.968 12.0076 21.336C11.3036 21.704 10.4716 21.888 9.51159 21.888Z" fill="white"/>
</svg>
